<svg xmlns="http://www.w3.org/2000/svg" height="20" viewBox="0 96 960 960" width="20"><path d="m428.231 726.153 246.922-245.922L620 425.078 428.231 615.847l-87-86L286.078 585l142.153 141.153Zm51.836 245.846q-81.476 0-153.684-30.94-72.209-30.94-126.342-85.05-54.134-54.111-85.087-126.289-30.953-72.177-30.953-153.653 0-82.732 30.999-154.666 30.999-71.933 85.21-126.234 54.212-54.3 126.288-84.733 72.075-30.433 153.435-30.433 82.722 0 154.648 30.42 71.925 30.42 126.238 84.71 54.314 54.291 84.747 126.212t30.433 154.673q0 81.753-30.42 153.621-30.42 71.869-84.697 126.103-54.278 54.235-126.18 85.247-71.903 31.012-154.635 31.012Z"/></svg>