<svg xmlns="http://www.w3.org/2000/svg" height="40" viewBox="0 96 960 960" width="40"><path d="M262.282 288.307h402.744v437.744L414.564 976l-13.958-11.773q-5.298-5.073-8.542-12.637-3.244-7.564-3.244-15.538v-4.667l41.077-205.334H139.436q-22.616 0-40.539-17.923-17.923-17.923-17.923-40.538v-49.986q0-5.527.18-11.912.18-6.384 2.333-11.846l111.18-261.18q7.636-18.782 27.422-31.57 19.785-12.789 40.193-12.789Zm368.898 33.846H258.307q-8.461 0-17.307 4.616-8.846 4.615-13.462 15.384L114.82 608.154v59.436q0 10.256 6.923 17.436 6.923 7.179 17.693 7.179H471.18l-46.154 227.026L631.18 711.385V322.153Zm0 389.232V322.153v389.232Zm33.846 14.666v-33.846H806V322.153H665.026v-33.846h174.82v437.744h-174.82Z"/></svg>