<svg xmlns="http://www.w3.org/2000/svg" height="40" viewBox="0 96 960 960" width="40"><path d="M479.813 900.1q-22.203 0-37.828-15.812-15.624-15.811-15.624-38.014 0-22.204 15.811-37.956 15.812-15.753 38.015-15.753 22.203 0 37.828 15.891 15.624 15.89 15.624 38.205 0 22.209-15.811 37.824-15.812 15.615-38.015 15.615Zm0-270.461q-22.203 0-37.828-15.811-15.624-15.812-15.624-38.015 0-22.203 15.811-37.828 15.812-15.624 38.015-15.624 22.203 0 37.828 15.811 15.624 15.812 15.624 38.015 0 22.203-15.811 37.828-15.812 15.624-38.015 15.624Zm0-270.204q-22.203 0-37.828-15.891-15.624-15.89-15.624-38.205 0-22.209 15.811-37.824 15.812-15.615 38.015-15.615 22.203 0 37.828 15.812 15.624 15.811 15.624 38.014 0 22.204-15.811 37.956-15.812 15.753-38.015 15.753Z"/></svg>