<svg xmlns="http://www.w3.org/2000/svg" height="48" viewBox="0 96 960 960" width="48"><path d="M485 912q-135.45 0-232.379-90.385Q155.692 731.231 150 597.308h44.769Q202 712 284.883 790.115 367.765 868.231 484 868.231q121.78 0 207.236-86.281 85.456-86.28 85.456-208.142 0-121.654-85.351-205.847Q605.99 283.769 485 283.769q-64.728 0-122.787 27.616-58.059 27.615-99.521 75.692h101.539v43.769H187.923V254h43.769v102.385q46.615-55.462 113.251-85.924Q411.578 240 485 240q69.459 0 130.318 26.523 60.858 26.523 105.861 71.948 45.003 45.424 72.143 106.679 27.14 61.256 27.14 129.822 0 69.336-27.14 131.004-27.14 61.667-72.143 107.323-45.003 45.655-105.861 72.178Q554.459 912 485 912Zm123.692-174.538L453.615 585.05V366.538h43.77v199.385l142.538 140.308-31.231 31.231Z"/></svg>