<svg xmlns="http://www.w3.org/2000/svg" height="40" viewBox="0 96 960 960" width="40"><path d="M697.333 896H294.666V458.256l249.949-249.949 14.408 11.774q5.362 5.072 8.605 12.636 3.244 7.565 3.244 15.026v5.18l-41.59 205.333h290.975q22.615 0 40.538 17.923t17.923 40.539v49.985q0 5.528-.436 11.912-.436 6.385-2.589 11.846l-110.667 261.18q-8.331 18.868-28.026 31.614Q717.306 896 697.333 896Zm-368.82-33.846h372.872q7.948 0 17.051-4.615 9.103-4.616 13.718-15.385l112.718-266v-59.436q0-10.257-7.179-17.436-7.18-7.18-17.436-7.18H488.513l45.641-227.026-205.641 207.847v389.231Zm0-389.231v389.231-389.231Zm-33.847-14.667v33.846H153.692v370.052h140.974V896h-174.82V458.256h174.82Z"/></svg>