<svg xmlns="http://www.w3.org/2000/svg" height="48" viewBox="0 96 960 960" width="48"><path d="M480.118 629.153q-42.124 0-69.62-29.285-27.497-29.285-27.497-71.56V279.385q0-40.096 27.82-68.24t69.003-28.144q41.182 0 69.178 28.144 27.997 28.144 27.997 68.24v248.923q0 42.275-27.379 71.56-27.379 29.285-69.502 29.285Zm-29.81 313.846V802.614q-107.23-10.077-179.268-88.076-72.039-78-72.039-186.23h58.384q0 92.077 65.104 155.115 65.104 63.038 157.473 63.038 92.37 0 157.512-63.038 65.141-63.038 65.141-155.115h58.384q0 108.002-72.539 186.116-72.538 78.113-179.768 88.19v140.385h-58.384Z"/></svg>