<svg xmlns="http://www.w3.org/2000/svg" height="48" viewBox="0 96 960 960" width="48"><path d="M171 846.231v-43.77h82.692V502.308q0-81.321 50.269-144.007 50.27-62.686 130.731-79.609v-28.231q0-19.827 12.79-31.836 12.789-12.01 32.577-12.01 19.787 0 32.518 12.01 12.731 12.009 12.731 31.836v28.231q80.461 16.923 131.346 79.609 50.885 62.686 50.885 144.007v300.153H789v43.77H171Zm309-283.077Zm-.035 410.461q-28.336 0-49.458-20.262Q409.385 933.09 409.385 903h141.23q0 30.615-20.272 50.615-20.273 20-50.378 20ZM297.462 802.461h366.307V502.308q0-76.616-53.461-129.808-53.462-53.192-130.077-53.192-76.616 0-129.692 53.192-53.077 53.192-53.077 129.808v300.153Z"/></svg>