<svg xmlns="http://www.w3.org/2000/svg" height="40" viewBox="0 96 960 960" width="40"><path d="m787 909.333-254-254q-30.404 26.385-72.534 39.859-42.131 13.474-80.507 13.474-99.577 0-167.601-67.837t-68.024-167q0-99.162 67.837-167.162t166.515-68q98.677 0 167.495 67.884Q615 374.436 615 473.525q0 41.808-14.167 82.142Q586.666 596 561.333 625l255 254.333-29.333 30Zm-407.667-242q82.723 0 138.528-55.361 55.806-55.361 55.806-138.305 0-82.945-55.747-138.306Q462.173 280 379.392 280q-82.781 0-138.253 55.361-55.472 55.361-55.472 138.306 0 82.944 55.472 138.305 55.472 55.361 138.194 55.361Z"/></svg>