<svg xmlns="http://www.w3.org/2000/svg" height="48" viewBox="0 96 960 960" width="48"><path d="M253.384 942q-27.782 0-48.083-19.982T185 873.616V420.384q0-27.782 20.301-48.083T253.384 352h85.231v-24.616q0-57.846 41.009-98.115Q420.632 189 479.92 189q59.289 0 100.877 40.269 41.588 40.269 41.588 98.115V352h84.231q27.782 0 48.083 20.301T775 420.384v453.232q0 28.42-20.301 48.402T706.616 942H253.384Zm0-43.769h453.232q9.23 0 16.923-7.692 7.692-7.693 7.692-16.923V420.384q0-9.23-7.692-16.923-7.693-7.692-16.923-7.692h-84.231v98.615q0 8.602-6.734 14.994-6.733 6.391-15.84 6.391-8.682 0-14.939-6.391-6.257-6.392-6.257-14.994v-98.615h-196.23v98.615q0 8.602-6.733 14.994-6.734 6.391-15.841 6.391-8.682 0-14.939-6.391-6.257-6.392-6.257-14.994v-98.615h-85.231q-9.23 0-16.923 7.692-7.692 7.693-7.692 16.923v453.232q0 9.23 7.692 16.923 7.693 7.692 16.923 7.692ZM382.385 352h196.23v-24.616q0-39.153-28.81-66.884t-69.885-27.731q-41.074 0-69.305 27.731-28.23 27.731-28.23 66.884V352ZM228.769 898.231V395.769 898.231Z"/></svg>