<svg xmlns="http://www.w3.org/2000/svg" height="48" viewBox="0 96 960 960" width="48"><path d="M212.384 912q-27.782 0-48.083-20.301T144 843.616V308.384q0-27.782 20.301-48.083T212.384 240h418.924L816 424.692v418.924q0 27.782-20.301 48.083T747.616 912H212.384Zm0-43.769h535.232q10.769 0 17.692-6.923t6.923-17.692V451.33H605.099V283.769H212.384q-10.769 0-17.692 6.923t-6.923 17.692v535.232q0 10.769 6.923 17.692t17.692 6.923Zm79.385-123.077h376.462v-43.769H291.769v43.769Zm0-294.539H480v-43.769H291.769v43.769Zm0 146.77h376.462v-43.77H291.769v43.77Zm-104-313.616V451.33 283.769v584.462-584.462Z"/></svg>