<svg xmlns="http://www.w3.org/2000/svg" height="48" viewBox="0 96 960 960" width="48"><path d="M237.769 656q0 67.79 36.539 125.433 36.538 57.644 98.461 85.721-9.385-12.577-14.077-27.308T354 811q1-22.539 10.307-43.115 9.308-20.577 27.154-37.424L480 643.154l90.308 87.307q15.846 16.429 25.269 37.215Q605 788.461 606 811q0 14.115-4.692 28.846t-13.077 27.308q60.923-28.077 97.961-85.721Q723.231 723.79 723.231 656q0-48.279-19.734-94.619-19.734-46.34-55.035-83.535-19.771 14.231-42.209 20.577-22.438 6.346-45.253 6.346-62.364 0-105.143-38.615-42.78-38.616-49.857-100.616v-9.23q-40.154 32.23-71.192 68.423-31.039 36.192-52.962 75.115-21.923 38.923-33 78.559-11.077 39.637-11.077 77.595ZM480 704.385l-58.308 57.307q-12.461 12.462-18.192 27.144-5.731 14.683-5.731 29.164 0 33.513 23.867 56.872T480 898.231q34.022 0 58.626-23.278 24.605-23.277 24.605-56.676 0-16.451-6.278-31.008-6.277-14.557-17.908-25.513L480 704.385Zm-33-427.847V348q0 47.948 33.267 80.474T561 461q16.606 0 33.495-5.346 16.89-5.347 31.736-16.27l21.23-18.538q55.462 41.923 87.501 104.608Q767 588.14 767 656.413q0 118.664-83.496 202.126Q600.008 942 480 942q-119.59 0-202.795-83.205Q194 775.59 194 656q0-105.616 67.077-208.77Q328.154 344.077 447 276.538Z"/></svg>