<svg xmlns="http://www.w3.org/2000/svg" height="48" viewBox="0 96 960 960" width="48"><path d="M394.461 687.462 631.462 536 394.461 384.538v302.924ZM350.615 909v-81H172.384q-27.782 0-48.083-19.982T104 759.616V311.384q0-27.782 20.301-48.083T172.384 243h615.232q27.782 0 48.083 20.301T856 311.384v448.232q0 28.42-20.301 48.402T787.616 828H609.385v81h-258.77ZM172.384 784.231h615.232q9.23 0 16.923-7.692 7.692-7.693 7.692-16.923V311.384q0-9.23-7.692-16.923-7.693-7.692-16.923-7.692H172.384q-9.23 0-16.923 7.692-7.692 7.693-7.692 16.923v448.232q0 9.23 7.692 16.923 7.693 7.692 16.923 7.692Zm-24.615 0V286.769 784.231Z"/></svg>