<svg xmlns="http://www.w3.org/2000/svg" height="48" viewBox="0 96 960 960" width="48"><path d="M160.692 831q-28.923 0-46.731-23.423-17.807-23.423-14.115-52.654l46.461-322.154q5.693-45.461 41.759-78.615Q224.132 321 272 321h417q46.334 0 82.65 33.262 36.316 33.263 43.043 78.507l45.461 322.154q4.692 28.231-13.615 52.154Q828.231 831 801.077 831q-16.591 0-29.911-5.038-13.32-5.039-22.243-14.962L641.821 705.385H318.692L212.077 811q-9.923 9.923-22.927 14.962Q176.146 831 160.692 831Zm16.462-48.538L298 661.615h365l120.829 120.829q3.479 2.71 14.27 6.71 10.209 0 14.978-7.579t4.538-17.547l-45.692-325.413q-5.958-31.727-29.754-52.786-23.796-21.06-52.346-21.06H271q-28.462 0-52.692 20.846-24.231 20.846-28.462 53l-46.461 325.63q-1.231 9.868 4.038 17.389 5.269 7.52 15.808 7.52 6.461 0 13.923-6.692ZM692.02 611.308q14.534 0 25.526-10.782 10.993-10.782 10.993-25.315 0-14.534-10.782-25.526-10.782-10.993-25.316-10.993-14.533 0-25.526 10.782-10.992 10.782-10.992 25.315 0 14.534 10.782 25.526 10.782 10.993 25.315 10.993Zm-83.923-125.616q13.765 0 25.142-10.781 11.376-10.782 11.376-25.316 0-14.534-11.166-25.526-11.166-10.992-24.931-10.992-14.533 0-25.526 10.782Q572 434.64 572 449.174t10.782 25.526q10.782 10.992 25.315 10.992ZM311.692 604h38.77v-71.923h72.692v-38.769h-72.692v-72.693h-38.77v72.693h-71.923v38.769h71.923V604ZM481 577.231Z"/></svg>